
      <svg data-logo="logo" xmlns="http://www.w3.org/2000/svg" viewBox="0 0 204 43">
        <g id="logogram" transform="translate(0, 1) rotate(0) "><path d="M0.452637 20.81C0.452637 9.76427 9.40694 0.809967 20.4526 0.809967H46.7026C57.7484 0.809967 66.7026 9.76427 66.7026 20.81V40.81H20.4526C9.40694 40.81 0.452637 31.8557 0.452637 20.81Z" fill="#4845D2"/><path d="M46.7026 8.30997H20.4526C13.5491 8.30997 7.95264 13.9064 7.95264 20.81C7.95264 27.7135 13.5491 33.31 20.4526 33.31H46.7026C53.6062 33.31 59.2026 27.7135 59.2026 20.81C59.2026 13.9064 53.6062 8.30997 46.7026 8.30997Z" fill="#A5B4FC"/><path d="M20.4526 27.06C23.9044 27.06 26.7026 24.2617 26.7026 20.81C26.7026 17.3582 23.9044 14.56 20.4526 14.56C17.0009 14.56 14.2026 17.3582 14.2026 20.81C14.2026 24.2617 17.0009 27.06 20.4526 27.06Z" fill="black"/><path d="M17.9526 19.56C18.643 19.56 19.2026 19.0003 19.2026 18.31C19.2026 17.6196 18.643 17.06 17.9526 17.06C17.2623 17.06 16.7026 17.6196 16.7026 18.31C16.7026 19.0003 17.2623 19.56 17.9526 19.56Z" fill="white"/><path d="M47.9526 27.06C51.4044 27.06 54.2026 24.2617 54.2026 20.81C54.2026 17.3582 51.4044 14.56 47.9526 14.56C44.5009 14.56 41.7026 17.3582 41.7026 20.81C41.7026 24.2617 44.5009 27.06 47.9526 27.06Z" fill="black"/><path d="M45.4526 19.56C46.143 19.56 46.7026 19.0003 46.7026 18.31C46.7026 17.6196 46.143 17.06 45.4526 17.06C44.7623 17.06 44.2026 17.6196 44.2026 18.31C44.2026 19.0003 44.7623 19.56 45.4526 19.56Z" fill="white"/></g>
        <g id="logotype" transform="translate(73, 8)"><path fill="#111111" d="M13.49 27L8.31 27L8.31 1.54L16.31 1.54L20.44 13.23Q20.70 14.05 21.03 15.34Q21.36 16.64 21.71 18.15Q22.05 19.65 22.35 21.07Q22.65 22.49 22.83 23.53L22.83 23.53L21.83 23.53Q22.01 22.51 22.31 21.10Q22.61 19.69 22.95 18.18Q23.29 16.68 23.63 15.36Q23.96 14.05 24.22 13.23L24.22 13.23L28.29 1.54L36.32 1.54L36.32 27L31.07 27L31.07 14.99Q31.07 14.17 31.10 12.92Q31.14 11.67 31.17 10.23Q31.21 8.78 31.24 7.32Q31.28 5.86 31.29 4.56L31.29 4.56L31.62 4.56Q31.29 5.98 30.90 7.49Q30.51 9.00 30.11 10.42Q29.70 11.84 29.34 13.03Q28.99 14.22 28.73 14.99L28.73 14.99L24.51 27L20.12 27L15.83 14.99Q15.57 14.22 15.21 13.05Q14.85 11.88 14.45 10.46Q14.05 9.04 13.64 7.53Q13.23 6.01 12.85 4.56L12.85 4.56L13.26 4.56Q13.28 5.79 13.31 7.24Q13.35 8.70 13.39 10.16Q13.43 11.62 13.46 12.88Q13.49 14.13 13.49 14.99L13.49 14.99L13.49 27ZM47.15 27.38L47.15 27.38Q44.23 27.38 42.11 26.18Q39.99 24.98 38.85 22.78Q37.72 20.57 37.72 17.55L37.72 17.55Q37.72 14.59 38.84 12.37Q39.97 10.15 42.04 8.90Q44.11 7.65 46.89 7.65L46.89 7.65Q48.77 7.65 50.40 8.25Q52.02 8.85 53.25 10.06Q54.48 11.26 55.17 13.07Q55.87 14.88 55.87 17.34L55.87 17.34L55.87 18.78L39.82 18.78L39.82 15.57L53.35 15.57L50.96 16.42Q50.96 14.93 50.51 13.83Q50.06 12.73 49.16 12.12Q48.26 11.52 46.93 11.52L46.93 11.52Q45.61 11.52 44.68 12.13Q43.75 12.75 43.27 13.80Q42.79 14.85 42.79 16.20L42.79 16.20L42.79 18.47Q42.79 20.13 43.35 21.26Q43.90 22.39 44.90 22.95Q45.90 23.51 47.24 23.51L47.24 23.51Q48.14 23.51 48.88 23.26Q49.61 23.00 50.13 22.50Q50.65 21.99 50.93 21.26L50.93 21.26L55.58 22.13Q55.11 23.70 53.97 24.89Q52.82 26.08 51.11 26.73Q49.39 27.38 47.15 27.38ZM65.72 27.38L65.72 27.38Q62.80 27.38 60.68 26.18Q58.56 24.98 57.43 22.78Q56.29 20.57 56.29 17.55L56.29 17.55Q56.29 14.59 57.42 12.37Q58.55 10.15 60.62 8.90Q62.68 7.65 65.47 7.65L65.47 7.65Q67.35 7.65 68.97 8.25Q70.60 8.85 71.83 10.06Q73.06 11.26 73.75 13.07Q74.44 14.88 74.44 17.34L74.44 17.34L74.44 18.78L58.39 18.78L58.39 15.57L71.93 15.57L69.54 16.42Q69.54 14.93 69.08 13.83Q68.63 12.73 67.73 12.12Q66.84 11.52 65.50 11.52L65.50 11.52Q64.19 11.52 63.26 12.13Q62.32 12.75 61.85 13.80Q61.37 14.85 61.37 16.20L61.37 16.20L61.37 18.47Q61.37 20.13 61.92 21.26Q62.48 22.39 63.48 22.95Q64.48 23.51 65.81 23.51L65.81 23.51Q66.72 23.51 67.45 23.26Q68.19 23.00 68.71 22.50Q69.23 21.99 69.50 21.26L69.50 21.26L74.15 22.13Q73.69 23.70 72.54 24.89Q71.40 26.08 69.68 26.73Q67.96 27.38 65.72 27.38ZM73.82 7.89L85.15 7.89L85.15 11.81L73.82 11.81L73.82 7.89ZM76.46 21.86L76.46 3.35L81.58 3.35L81.58 21.41Q81.58 22.32 81.98 22.75Q82.39 23.19 83.33 23.19L83.33 23.19Q83.62 23.19 84.15 23.11Q84.68 23.04 84.95 22.97L84.95 22.97L85.68 26.81Q84.83 27.07 83.98 27.17Q83.14 27.27 82.37 27.27L82.37 27.27Q79.50 27.27 77.98 25.87Q76.46 24.47 76.46 21.86L76.46 21.86ZM91.34 27L86.21 27L86.21 7.89L91.34 7.89L91.34 27ZM88.77 5.40L88.77 5.40Q87.61 5.40 86.79 4.63Q85.97 3.86 85.97 2.77L85.97 2.77Q85.97 1.67 86.79 0.90Q87.61 0.13 88.77 0.13L88.77 0.13Q89.94 0.13 90.77 0.90Q91.59 1.66 91.59 2.77L91.59 2.77Q91.59 3.86 90.77 4.63Q89.94 5.40 88.77 5.40ZM98.55 15.94L98.55 15.94L98.55 27L93.42 27L93.42 7.89L98.26 7.89L98.34 12.66L98.04 12.66Q98.79 10.27 100.32 8.96Q101.85 7.65 104.27 7.65L104.27 7.65Q106.26 7.65 107.73 8.52Q109.20 9.38 110.02 11.00Q110.84 12.61 110.84 14.85L110.84 14.85L110.84 27L105.71 27L105.71 15.74Q105.71 13.96 104.79 12.95Q103.88 11.94 102.26 11.94L102.26 11.94Q101.18 11.94 100.33 12.41Q99.49 12.88 99.02 13.77Q98.55 14.66 98.55 15.94ZM121.48 27.38L121.48 27.38Q118.59 27.38 116.50 26.14Q114.41 24.90 113.27 22.68Q112.13 20.47 112.13 17.53L112.13 17.53Q112.13 14.56 113.27 12.35Q114.41 10.13 116.50 8.89Q118.59 7.65 121.48 7.65L121.48 7.65Q123.17 7.65 124.61 8.10Q126.04 8.54 127.15 9.36Q128.27 10.18 128.98 11.36Q129.70 12.54 129.97 14.01L129.97 14.01L125.21 14.90Q125.05 14.15 124.73 13.56Q124.40 12.97 123.94 12.55Q123.48 12.13 122.87 11.91Q122.27 11.69 121.53 11.69L121.53 11.69Q120.16 11.69 119.23 12.42Q118.30 13.16 117.83 14.47Q117.36 15.79 117.36 17.52L117.36 17.52Q117.36 19.22 117.83 20.53Q118.30 21.84 119.23 22.59Q120.16 23.34 121.53 23.34L121.53 23.34Q122.27 23.34 122.88 23.11Q123.50 22.88 123.98 22.45Q124.45 22.01 124.78 21.39Q125.10 20.78 125.24 20.01L125.24 20.01L130.01 20.88Q129.74 22.40 129.02 23.59Q128.30 24.78 127.19 25.63Q126.08 26.49 124.63 26.93Q123.19 27.38 121.48 27.38Z"/></g>
        
      </svg>
    